<?xml version="1.0" encoding="UTF-8"?>
<svg id="Layer_1" data-name="Layer 1" xmlns="http://www.w3.org/2000/svg" viewBox="0 0 573.14 262.9">
  <defs>
    <style>
      .cls-1 {
        fill: #08a46f;
      }

      .cls-1, .cls-2, .cls-3, .cls-4 {
        stroke-width: 0px;
      }

      .cls-2 {
        fill: #d8125a;
      }

      .cls-3 {
        fill: #121211;
      }

      .cls-4 {
        fill: #111110;
      }
    </style>
  </defs>
  <path class="cls-3" d="M573.14,177.96c-8.76,0-17.32-.01-25.87.02-.8,0-1-.46-1.28-.98-5.64-10.31-11.28-20.62-16.92-30.94-.86-1.57-1.75-3.13-2.58-4.72-.29-.57-.62-.79-1.29-.78-1.96.05-3.92.07-5.87,0-.89-.03-1.01.29-1.01,1.08.03,11.67,0,23.33.05,35,0,1.14-.33,1.34-1.38,1.34-6.6-.05-13.19-.04-19.79,0-.86,0-1.15-.16-1.15-1.1.03-30.69.03-61.37,0-92.06,0-.8.14-1.08,1.02-1.08,12.47.04,24.95-.09,37.41.11,7.15.11,14.14,1.34,20.51,4.92,8.17,4.6,12.48,11.6,13.02,20.94.32,5.47-.31,10.76-3.07,15.61-3.36,5.91-8.53,9.57-14.82,11.83-1.52.55-1.52.53-.71,1.86,7.69,12.59,15.39,25.17,23.08,37.76.2.33.37.68.65,1.19ZM518.22,113.02c0,3.35.03,6.71-.02,10.06-.01.78.2,1,.98.99,3.56-.04,7.11.04,10.67-.04,3.4-.07,6.78-.45,9.9-1.95,4.06-1.96,5.93-5.26,5.81-9.74-.11-4.27-2.2-7.22-6.3-8.83-2.26-.89-4.64-1.22-7.03-1.27-4.31-.08-8.63-.01-12.94-.09-.95-.02-1.1.3-1.08,1.15.05,3.23.02,6.47.02,9.7Z"/>
  <path class="cls-3" d="M131.22,262.89c-34.72-.4-64.89-12.32-90.22-36.06-18.68-17.51-30.87-38.93-37.14-63.71C1.54,153.95.25,144.63.04,135.18c-.75-33.6,9.62-63.37,31.32-89C50.52,23.55,74.87,9.33,103.81,2.94,111.98,1.14,120.25.2,128.62.03c27.51-.56,52.71,6.81,75.71,21.86.84.55.91.88.31,1.69-1.42,1.93-2.77,3.91-4.02,5.95-.56.92-.97.68-1.64.24-10.84-7.22-22.54-12.57-35.1-16.01-13.92-3.81-28.07-5.11-42.47-3.9-15.64,1.31-30.57,5.3-44.52,12.46C44.22,39.1,23.05,65.33,13.33,100.74c-2.58,9.39-3.74,19-3.88,28.74-.27,19.91,4.06,38.77,12.89,56.59,5.48,11.05,12.51,21.05,21.12,29.9,17.96,18.48,39.58,30.31,64.86,35.32,15.01,2.97,30.08,2.94,45.13.14.8-.15,1.18-.08,1.33.87.4,2.52.9,5.02,1.43,7.52.13.61-.05.78-.58.87-6.81,1.22-13.66,2.01-20.58,2.19-1.28.03-2.56,0-3.84,0Z"/>
  <path class="cls-3" d="M345.3,177.9c.86-2.09,1.69-4.1,2.53-6.11,12.14-28.93,24.29-57.85,36.41-86.79.4-.95.83-1.27,1.89-1.27,6.56.06,13.11.04,19.67.01.82,0,1.22.2,1.55,1.01,12.73,30.71,25.49,61.4,38.28,92.09.44,1.06.13,1.14-.82,1.13-7.6-.03-15.19-.03-22.79,0-.97,0-1.45-.24-1.82-1.2-2.1-5.46-4.31-10.88-6.41-16.34-.3-.79-.69-.97-1.47-.96-11.39.02-22.79.03-34.18,0-.93,0-1.29.34-1.59,1.15-2.02,5.49-4.1,10.96-6.13,16.45-.21.58-.41.91-1.15.91-7.8-.03-15.59-.02-23.39-.02-.15,0-.3-.03-.58-.06ZM395.45,109.03c-3.92,10.59-7.71,20.9-11.56,31.19-.42,1.12.14.97.82.97,7.07,0,14.15-.03,21.22.02,1.1,0,1.12-.28.79-1.18-2.56-6.95-5.07-13.91-7.6-20.87-1.19-3.28-2.38-6.57-3.67-10.13Z"/>
  <path class="cls-1" d="M131.6,28.27c-26.98.34-50.69,9.23-70.53,27.64-16.32,15.14-26.9,33.73-30.89,55.66-6.2,34.14,2.35,64.41,25.71,90.11,15.21,16.73,34.3,26.98,56.53,31.25,12.49,2.4,25.01,2.35,37.51.04.92-.17,1.17.12,1.31.94.42,2.44.89,4.87,1.4,7.29.15.74-.04.96-.77,1.09-33.88,5.76-64.46-1.85-91.28-23.28-21.86-17.46-35.32-40.31-40.01-67.87-6.21-36.51,3.31-68.8,28.16-96.25,16.36-18.07,36.93-29.14,60.84-33.97,11.81-2.38,23.71-2.85,35.65-1.35,23.77,2.99,44.52,12.6,62.31,28.64,4.37,3.94,8.35,8.25,12.05,12.82.46.57.55.88-.11,1.38-2.02,1.5-4,3.06-5.95,4.64-.58.47-.86.53-1.38-.12-10.77-13.38-24.05-23.5-39.81-30.33-11.85-5.14-24.25-7.89-37.16-8.32-1.2-.04-2.4,0-3.59,0Z"/>
  <path class="cls-4" d="M287.44,130.76c0-15.26.01-30.53-.03-45.79,0-1,.24-1.23,1.23-1.23,19.87.03,39.74.03,59.6,0,1,0,1.24.23,1.23,1.23-.05,5.67-.06,11.35,0,17.02.01,1.11-.34,1.26-1.32,1.26-12.31-.03-24.62,0-36.94-.05-.99,0-1.27.22-1.26,1.24.05,5.67.05,11.35,0,17.02,0,.95.26,1.17,1.18,1.17,11.35-.03,22.71-.01,34.06-.04.89,0,1.2.16,1.19,1.14-.05,5.51-.05,11.03,0,16.54,0,.92-.25,1.1-1.12,1.1-11.35-.03-22.71,0-34.06-.04-.99,0-1.26.24-1.25,1.25.04,11.35,0,22.7.05,34.04,0,1.11-.29,1.38-1.38,1.37-6.68-.05-13.35-.05-20.03,0-.96,0-1.19-.26-1.19-1.2.03-15.34.02-30.69.02-46.03Z"/>
  <path class="cls-2" d="M46.95,132.97c.42,21.33,8.26,41.34,24.45,57.8,12.87,13.09,28.54,21.08,46.67,24.08,9.46,1.57,18.94,1.42,28.37-.34.83-.15,1.12.04,1.26.86.41,2.4.88,4.79,1.38,7.17.18.84.03,1.15-.91,1.31-28.14,4.71-53.49-1.69-75.75-19.45-18.07-14.42-29.29-33.28-33.24-56.01-5.47-31.46,2.91-59.11,24.88-82.34,14.08-14.89,31.55-23.79,51.72-27.31,13.49-2.35,26.89-1.6,40.14,1.9.84.22,1.05.54.78,1.4-.72,2.32-1.38,4.66-1.99,7.02-.21.81-.47.99-1.31.76-7.67-2.11-15.5-3.14-23.45-2.93-19.99.53-37.78,7.09-53.04,20.04-15.08,12.8-24.51,29.01-28.4,48.42-1.05,5.26-1.5,10.59-1.56,17.62Z"/>
  <path class="cls-3" d="M151.03,127.69c1.11.22,2.23.43,3.34.68,9.06,2.04,15.84,8.95,17.27,17.63,2.15,12.94-3.79,23.34-16.06,28.18-5.22,2.06-10.66,3.08-16.25,3.13-9.67.09-19.34.06-29.02.12-1.02,0-1.23-.28-1.23-1.26.03-30.57.03-61.14,0-91.7,0-1,.25-1.25,1.24-1.24,9.91.05,19.83-.09,29.74.12,5.98.13,11.83,1.3,17.06,4.47,6.19,3.75,9.61,9.24,10.29,16.47.55,5.89-.55,11.26-4.36,15.93-2.82,3.45-6.43,5.67-10.67,6.92-.44.13-.89.25-1.33.37v.17ZM118.71,150.67c0,5.79.02,11.59-.02,17.38,0,.85.24,1.06,1.07,1.06,5.52-.04,11.04-.02,16.55-.02,3.28,0,6.54-.28,9.76-.94,4.46-.91,8.58-2.56,11.83-5.86,4.17-4.22,5.09-9.4,4.26-15.06-.87-5.97-4.23-10.01-9.69-12.4-3.37-1.48-6.92-2.21-10.57-2.37-7.43-.32-14.87-.05-22.3-.16-.92-.01-.91.44-.91,1.1.01,5.75,0,11.51,0,17.26ZM118.71,107.95c0,5.11.02,10.22-.02,15.33,0,.89.21,1.15,1.12,1.14,5.91-.04,11.82-.03,17.74-.02,2.24,0,4.46-.19,6.66-.63,7.89-1.58,13.16-6.81,13.67-14.29.48-7.04-2.42-12.36-8.76-15.44-3.14-1.53-6.51-2.13-9.95-2.36-6.38-.44-12.78-.09-19.16-.23-1.01-.02-1.35.17-1.34,1.28.07,5.07.03,10.14.03,15.21Z"/>
  <path class="cls-3" d="M56.28,129.36c.32-18.29,7.34-35.79,21.37-50.44,2.57-2.69,5.39-5.1,8.31-7.4.73-.58,1.06-.46,1.56.25,1.42,2.02,2.89,4.02,4.41,5.97.52.67.34.95-.24,1.39-10.52,8.05-18.06,18.32-22.32,30.85-5.75,16.9-4.88,33.61,2.84,49.68,8.83,18.39,23.42,30.13,43.1,35.44,9.07,2.45,18.29,2.65,27.54,1,.91-.16,1.14.02,1.29.91.39,2.4.9,4.78,1.38,7.16.15.73.08,1.09-.83,1.24-23.52,3.85-44.46-1.87-62.54-17.32-13.68-11.68-21.73-26.7-24.83-44.39-.72-4.09-1.02-8.24-1.04-14.35Z"/>
  <path class="cls-3" d="M240.13,178.97c-8.92-.05-16.89-2.69-23.44-8.92-4.98-4.74-8-10.62-9.15-17.38-1.56-9.21-.13-17.9,5.27-25.68,5.1-7.34,12.28-11.51,20.99-12.96,7.7-1.28,15.21-.49,22.26,3.08,9.43,4.77,14.95,12.54,16.77,22.82,1.71,9.68-.05,18.77-6.13,26.71-5.54,7.24-13.09,10.98-22.04,12.08-1.51.18-3.02.31-4.55.25ZM216.59,147.28c.11.98.22,2.33.41,3.67,1.83,12.67,11.81,20.93,24.59,20.19,9.43-.54,16.19-5.16,19.97-13.84,2.45-5.62,2.83-11.51,1.5-17.47-3.56-15.92-18.59-21.82-31.28-17.22-10.42,3.77-15.29,13.77-15.19,24.67Z"/>
  <path class="cls-4" d="M453.13,112.06c7.62,4.76,15.16,4.77,22.72.07.27.42.14.86.14,1.27,0,21.05,0,42.11.04,63.16,0,1.17-.3,1.44-1.45,1.43-6.83-.06-13.67-.04-20.5-.01-.76,0-1.01-.17-1.01-.98.02-21.53.02-43.07.02-64.6,0-.08.02-.15.04-.34Z"/>
  <path class="cls-2" d="M481.19,93.53c0,9.26-7.39,16.65-16.64,16.65-9.3,0-16.71-7.44-16.75-16.75,0-9.17,7.53-16.64,16.75-16.62,9.23.02,16.6,7.44,16.6,16.72Z"/>
  <path class="cls-4" d="M194.95,146.23c0,9.98-.02,19.97.02,29.95,0,.98-.19,1.29-1.22,1.25-2.27-.09-4.56-.07-6.83,0-.9.03-1.11-.21-1.11-1.11.03-14.1.02-28.2.02-42.29,0-5.95.02-11.9-.02-17.85,0-.82.17-1.08,1.03-1.06,2.32.07,4.64.07,6.95,0,.93-.03,1.18.22,1.17,1.16-.04,9.98-.02,19.97-.02,29.95Z"/>
  <path class="cls-3" d="M190.36,97.63c-3.48-.02-6.42-2.96-6.4-6.42.01-3.46,2.95-6.41,6.41-6.45,3.47-.03,6.5,3.01,6.47,6.51-.03,3.45-3.02,6.38-6.47,6.36Z"/>
</svg>
